<svg xmlns="http://www.w3.org/2000/svg" xmlns:svg="http://www.w3.org/2000/svg" id="svg147" x="0" y="0" version="1.1" viewBox="0 0 16 16" xml:space="preserve" style="enable-background:new 0 0 16 16"><metadata id="metadata153"/><style id="style103" type="text/css">.st0{display:none}.st1{display:inline}.st2{fill:#d0cdc6}.st3{fill:#fff}.st4{fill:#1d4775}.st5{fill:#8194a9}.st6{fill:#ebf1f5}.st7{display:inline;fill:#faf1f5}.st9{fill:#c91517}</style><g id="backgrounds" class="st0"><rect id="black" width="120" height="80" x="-88" y="-16" class="st1"/><rect id="win2k" width="120" height="80" x="-88" y="-16" class="st2"/><rect id="white" width="120" height="80" x="-88" y="-16" class="st3"/><rect id="win7_aero" width="120" height="80" x="-88" y="-16" class="st4"/><rect id="win7_1_" width="120" height="80" x="-88" y="-16" class="st5"/><rect id="macosx" width="120" height="80" x="-88" y="-16" class="st6"/><rect id="macosx2" width="120" height="80" x="-88" y="-16" class="st7"/></g><g id="_x31_6x16_optimized__x28_Win_x29_"><g id="error"><g id="small_6_"><path style="fill:orange;fill-opacity:1" id="path123" d="m 8.5,13.5 c -1.1,0 -2,-0.9 -2,-2 v -1 c 0,-1.1 0.9,-2 2,-2 h 3 c 1.1,0 2,0.9 2,2 v 1 c 0,1.1 -0.9,2 -2,2 z" class="st9"/><path style="fill:#fff" id="path125" d="m 11.5,9 c 0.8,0 1.5,0.7 1.5,1.5 v 1 c 0,0.8 -0.7,1.5 -1.5,1.5 h -3 C 7.7,13 7,12.3 7,11.5 v -1 C 7,9.7 7.7,9 8.5,9 h 3 m 0,-1 h -3 C 7.1,8 6,9.1 6,10.5 v 1 C 6,12.9 7.1,14 8.5,14 h 3 c 1.4,0 2.5,-1.1 2.5,-2.5 v -1 C 14,9.1 12.9,8 11.5,8 Z" class="st3"/></g><g id="middle_6_"><path style="fill:orange;fill-opacity:1" id="path128" d="M 3,14.5 C 1.6,14.5 0.5,13.4 0.5,12 V 11 C 0.5,9.6 1.6,8.5 3,8.5 h 3 c 1.4,0 2.5,1.1 2.5,2.5 v 1 c 0,1.4 -1.1,2.5 -2.5,2.5 z" class="st9"/><path style="fill:#fff" id="path130" d="m 6,9 c 1.1,0 2,0.9 2,2 v 1 c 0,1.1 -0.9,2 -2,2 H 3 C 1.9,14 1,13.1 1,12 V 11 C 1,9.9 1.9,9 3,9 H 6 M 6,8 H 3 C 1.3,8 0,9.3 0,11 v 1 c 0,1.7 1.3,3 3,3 h 3 c 1.7,0 3,-1.3 3,-3 V 11 C 9,9.3 7.7,8 6,8 Z" class="st3"/></g><g id="big_6_"><path style="fill:orange;fill-opacity:1" id="path133" d="M 7,10.5 C 5.6,10.5 4.5,9.4 4.5,8 V 4 C 4.5,2.6 5.6,1.5 7,1.5 h 6 c 1.4,0 2.5,1.1 2.5,2.5 v 4 c 0,1.4 -1.1,2.5 -2.5,2.5 z" class="st9"/><path style="fill:#fff" id="path135" d="m 13,2 c 1.1,0 2,0.9 2,2 v 4 c 0,1.1 -0.9,2 -2,2 H 7 C 5.9,10 5,9.1 5,8 V 4 C 5,2.9 5.9,2 7,2 h 6 M 13,1 H 7 C 5.3,1 4,2.3 4,4 v 4 c 0,1.7 1.3,3 3,3 h 6 c 1.7,0 3,-1.3 3,-3 V 4 C 16,2.3 14.7,1 13,1 Z" class="st3"/></g><ellipse id="path858" cx="9.988" cy="8.63" rx=".936" ry=".895" style="fill:#fff;fill-opacity:1;stroke-width:1.22462487"/><rect id="rect854-5" width="1.875" height="4.258" x="9.046" y="2.75" style="fill:#fff;fill-opacity:1;stroke-width:1.1328485"/></g></g></svg>
